<svg data-v-423bf9ae="" xmlns="http://www.w3.org/2000/svg" viewBox="0 0 382 90" class="iconLeft"><!----><!----><!----><g data-v-423bf9ae="" id="15899289-9084-413c-ab2e-b12bb4708b26" fill="white" transform="matrix(5.0718512535095215,0,0,5.0718512535095215,107.00761413574219,-10.35925579071045)"><path d="M0.59 10.40C0.59 12.60 2.09 14.13 4.26 14.13C5.49 14.13 6.52 13.68 7.22 12.89L6.62 12.25C6.05 12.85 5.25 13.17 4.34 13.17C2.91 13.17 1.86 12.26 1.67 10.82L7.69 10.82C7.80 8.32 6.62 6.66 4.24 6.68C2.10 6.68 0.59 8.20 0.59 10.40ZM1.67 9.93C1.83 8.53 2.84 7.62 4.24 7.62C5.68 7.62 6.64 8.51 6.71 9.93ZM8.53 14.08L9.76 14.08L11.93 11.07L14.03 14.08L15.30 14.08L12.66 10.29L15.12 6.71L13.92 6.71L11.93 9.51L9.97 6.71L8.71 6.71L11.21 10.29ZM16.23 10.40C16.23 12.60 17.72 14.13 19.89 14.13C21.13 14.13 22.16 13.68 22.86 12.89L22.26 12.25C21.69 12.85 20.89 13.17 19.98 13.17C18.55 13.17 17.50 12.26 17.30 10.82L23.32 10.82C23.44 8.32 22.26 6.66 19.88 6.68C17.74 6.68 16.23 8.20 16.23 10.40ZM17.30 9.93C17.47 8.53 18.48 7.62 19.88 7.62C21.32 7.62 22.27 8.51 22.34 9.93ZM24.46 10.19C24.46 12.29 25.83 13.76 27.82 13.76C29.06 13.76 30.02 13.20 30.53 12.22L30.53 13.34C30.53 14.88 29.48 15.86 27.87 15.86C26.89 15.85 26.12 15.53 25.40 14.92L24.89 15.76C25.79 16.44 26.75 16.81 27.92 16.83C30.16 16.83 31.63 15.47 31.63 13.31L31.63 6.71L30.53 6.71L30.53 8.20C30.00 7.22 29.05 6.66 27.79 6.66C25.82 6.68 24.46 8.13 24.46 10.19ZM25.48 10.23C25.49 8.71 26.53 7.62 28.01 7.62C29.48 7.62 30.53 8.69 30.53 10.23C30.53 11.75 29.48 12.84 28.01 12.84C26.53 12.84 25.49 11.75 25.48 10.23ZM33.36 10.40C33.36 12.60 34.86 14.13 37.03 14.13C38.26 14.13 39.30 13.68 40.00 12.89L39.40 12.25C38.82 12.85 38.02 13.17 37.11 13.17C35.69 13.17 34.64 12.26 34.44 10.82L40.46 10.82C40.57 8.32 39.40 6.66 37.02 6.68C34.87 6.68 33.36 8.20 33.36 10.40ZM34.44 9.93C34.61 8.53 35.62 7.62 37.02 7.62C38.46 7.62 39.41 8.51 39.48 9.93ZM41.54 7.83L42.60 7.83L42.60 12.04C42.60 13.50 43.40 14.14 44.48 14.14C45.07 14.13 45.63 13.93 46.14 13.58L45.84 12.70C45.43 12.95 45.04 13.08 44.66 13.08C44.03 13.08 43.68 12.74 43.68 11.84L43.68 7.83L46.02 7.83L46.02 6.93L43.68 6.94L43.68 5.00L42.60 5.00L42.60 6.94L41.54 6.94ZM47.05 10.40C47.05 12.60 48.55 14.13 50.72 14.13C51.95 14.13 52.99 13.68 53.69 12.89L53.09 12.25C52.51 12.85 51.72 13.17 50.81 13.17C49.38 13.17 48.33 12.26 48.13 10.82L54.15 10.82C54.26 8.32 53.09 6.66 50.71 6.68C48.57 6.68 47.05 8.20 47.05 10.40ZM48.13 9.93C48.30 8.53 49.31 7.62 50.71 7.62C52.15 7.62 53.10 8.51 53.17 9.93Z"></path></g><!----><g data-v-423bf9ae="" id="8f61634b-76bc-4600-88f7-404c70c4dff5" transform="matrix(2.8125,0,0,2.8125,0,0)" stroke="none" fill="white"><path d="M16 32c8.837 0 16-7.163 16-16S24.837 0 16 0 0 7.163 0 16s7.163 16 16 16zM14.817 6.421h2v8.886h8.887v2H14.817V6.421zm-5.959.437h2v14.283h14.283v2H8.858V6.858z"></path></g><!----></svg>